<svg xmlns="http://www.w3.org/2000/svg" xmlns:xlink="http://www.w3.org/1999/xlink" width="500" zoomAndPan="magnify" viewBox="0 0 375 374.999991" height="500" preserveAspectRatio="xMidYMid meet" version="1.0"><defs><clipPath id="a1db6bf87b"><path d="M 65.75 122.074219 L 309.25 122.074219 L 309.25 324.1875 L 65.75 324.1875 Z M 65.75 122.074219 " clip-rule="nonzero"/></clipPath><clipPath id="dd43ffe5a4"><path d="M 0.75 0.0742188 L 244 0.0742188 L 244 202.1875 L 0.75 202.1875 Z M 0.75 0.0742188 " clip-rule="nonzero"/></clipPath><clipPath id="5951569b67"><rect x="0" width="245" y="0" height="203"/></clipPath><clipPath id="98f3d5faea"><path d="M 37.5 50.8125 L 337.5 50.8125 L 337.5 324.5625 L 37.5 324.5625 Z M 37.5 50.8125 " clip-rule="nonzero"/></clipPath></defs><g clip-path="url(#a1db6bf87b)"><g transform="matrix(1, 0, 0, 1, 65, 122)"><g clip-path="url(#5951569b67)"><g clip-path="url(#dd43ffe5a4)"><path fill="#ffffff" d="M 0.75 0.0742188 L 243.921875 0.0742188 L 243.921875 202.1875 L 0.75 202.1875 Z M 0.75 0.0742188 " fill-opacity="1" fill-rule="nonzero"/></g></g></g></g><g clip-path="url(#98f3d5faea)"><path fill="#a20434" d="M 71.910156 101.84375 C 147.574219 101.84375 223.230469 101.851562 298.890625 101.832031 C 310.546875 101.824219 316.472656 100.101562 316.292969 92.273438 C 315.828125 86.902344 307.394531 85.484375 302.949219 85.164062 C 232.53125 85.164062 164.414062 85.164062 92.941406 85.164062 C 92.941406 79.035156 92.929688 74.8125 92.941406 70.589844 C 92.992188 53.378906 96.21875 49.519531 113.015625 51.140625 C 137.324219 53.480469 161.519531 57.132812 185.777344 60.128906 C 230.902344 65.703125 276.03125 71.210938 321.160156 76.753906 C 332.261719 78.117188 337.578125 83.320312 337.492188 95.59375 C 337.023438 161.359375 337.382812 227.128906 337.195312 292.902344 C 337.144531 313.921875 327.292969 324.273438 306.3125 324.355469 C 290.140625 324.417969 273.96875 324.460938 257.796875 324.488281 C 256.832031 305.140625 255.96875 285.78125 254.949219 266.441406 C 254.386719 255.878906 258.101562 247.394531 266.238281 240.65625 C 276.554688 232.09375 281.648438 221.011719 280.4375 207.589844 C 278.605469 187.199219 276.320312 166.839844 274.195312 146.464844 C 273.792969 142.617188 271.574219 140.28125 267.652344 140.46875 C 263.710938 140.660156 261.761719 143.25 261.726562 147.097656 C 261.667969 156.585938 261.710938 166.074219 261.710938 175.578125 C 261.703125 184.464844 261.742188 193.359375 261.6875 202.242188 C 261.664062 207.386719 259.238281 210.292969 255.164062 210.296875 C 251.230469 210.3125 248.703125 207.214844 248.691406 202.167969 C 248.667969 184.242188 248.703125 166.304688 248.679688 148.375 C 248.671875 142.378906 244.828125 139.019531 240.003906 140.710938 C 236.34375 142.007812 235.75 145.019531 235.75 148.371094 C 235.761719 159.523438 235.761719 170.671875 235.761719 181.820312 C 235.761719 188.449219 235.800781 195.082031 235.753906 201.714844 C 235.71875 207.265625 233.421875 210.261719 229.289062 210.328125 C 225.207031 210.378906 222.710938 207.238281 222.707031 201.835938 C 222.679688 184.503906 222.695312 167.179688 222.695312 149.851562 C 222.695312 148.792969 222.765625 147.730469 222.660156 146.679688 C 222.289062 143.121094 220.550781 140.664062 216.753906 140.503906 C 212.757812 140.332031 210.617188 142.640625 210.199219 146.464844 C 208.960938 157.847656 207.804688 169.234375 206.617188 180.621094 C 205.785156 188.550781 205.011719 196.5 204.105469 204.425781 C 202.46875 218.804688 206.644531 230.988281 217.855469 240.324219 C 226.652344 247.664062 230.101562 256.796875 229.46875 268.210938 C 228.429688 286.984375 227.460938 305.761719 226.519531 324.546875 C 200.847656 324.582031 175.175781 324.582031 149.511719 324.546875 C 148.507812 304.308594 147.488281 284.070312 146.449219 263.835938 C 145.976562 254.554688 148.675781 246.492188 155.445312 240.167969 C 178.457031 218.683594 179.125 173.199219 158.378906 148.953125 C 143.886719 132.019531 123.582031 132.101562 109.128906 149.257812 C 100.828125 159.117188 96.546875 170.789062 95.046875 183.429688 C 93.136719 199.515625 95.136719 215.054688 103.679688 229.15625 C 106.144531 233.226562 109.308594 236.96875 112.632812 240.394531 C 119.273438 247.234375 121.882812 255.320312 121.398438 264.660156 C 120.363281 284.597656 119.339844 304.550781 118.320312 324.484375 C 101.863281 324.449219 85.414062 324.398438 68.960938 324.320312 C 47.972656 324.234375 37.535156 312.582031 37.527344 291.636719 C 37.492188 239.714844 37.511719 187.796875 37.515625 135.875 C 37.527344 111.980469 47.773438 101.847656 71.910156 101.84375 Z M 71.910156 101.84375 " fill-opacity="1" fill-rule="evenodd"/></g><path fill="#a20434" d="M 122.019531 155.484375 C 122.019531 155.484375 121.050781 156.039062 119.574219 157.3125 C 118.835938 157.945312 117.945312 158.742188 117.023438 159.738281 C 116.105469 160.742188 115.050781 161.875 114.085938 163.257812 C 113.027344 164.578125 112.09375 166.136719 111.070312 167.800781 C 110.195312 169.519531 109.164062 171.316406 108.445312 173.316406 C 107.652344 175.296875 106.925781 177.378906 106.449219 179.582031 C 105.796875 181.742188 105.59375 184.023438 105.273438 186.28125 C 105.011719 188.550781 105.097656 190.84375 105.070312 193.082031 C 105.1875 195.316406 105.515625 197.5 105.785156 199.609375 C 106.207031 201.679688 106.769531 203.648438 107.257812 205.511719 C 107.730469 207.375 108.609375 209.011719 109.214844 210.5625 C 109.871094 212.109375 110.460938 213.503906 111.226562 214.640625 C 111.90625 215.8125 112.554688 216.804688 113.089844 217.613281 C 114.144531 219.222656 114.816406 220.097656 114.816406 220.097656 C 114.816406 220.097656 114.695312 218.964844 114.359375 217.089844 C 114.183594 216.148438 114.003906 215.011719 113.710938 213.746094 C 113.386719 212.484375 113.292969 211.003906 113.03125 209.449219 C 112.925781 208.664062 112.792969 207.851562 112.671875 207.015625 C 112.542969 206.179688 112.375 205.324219 112.347656 204.425781 C 112.195312 202.667969 112.035156 200.804688 111.871094 198.875 C 111.835938 196.964844 111.800781 194.992188 111.777344 192.992188 C 111.957031 190.996094 111.871094 188.964844 112.15625 186.964844 C 112.410156 184.960938 112.550781 182.9375 112.988281 180.992188 C 113.191406 180.015625 113.328125 179.035156 113.535156 178.074219 C 113.773438 177.125 114.011719 176.175781 114.242188 175.253906 C 114.660156 173.382812 115.316406 171.640625 115.796875 169.929688 C 116.429688 168.285156 116.886719 166.644531 117.519531 165.203125 C 118.660156 162.277344 119.820312 159.859375 120.644531 158.164062 C 121.480469 156.464844 122.019531 155.484375 122.019531 155.484375 Z M 122.019531 155.484375 " fill-opacity="1" fill-rule="nonzero"/></svg>